<?xml version="1.0" encoding="utf-8"?>
<!-- Generator: Adobe Illustrator 24.2.0, SVG Export Plug-In . SVG Version: 6.00 Build 0)  -->
<svg version="1.1" id="Capa_1" xmlns="http://www.w3.org/2000/svg" xmlns:xlink="http://www.w3.org/1999/xlink" x="0px" y="0px"
	 viewBox="0 0 1920 1080" style="enable-background:new 0 0 1920 1080;" xml:space="preserve">
<style type="text/css">
	.st0{fill:#28A5DF;stroke:#000000;stroke-width:0.25;stroke-miterlimit:10;}
	.st1{fill:#263238;stroke:#000000;stroke-width:0.25;stroke-miterlimit:10;}
	.st2{fill:#263238;}
	.st3{fill:none;stroke:#000000;stroke-width:0.25;stroke-miterlimit:10;}
	.st4{opacity:0.57;fill:#20292D;}
	.st5{opacity:0.58;fill:#20292D;}
	.st6{opacity:0.61;fill:#20292D;}
	.st7{opacity:0.4;fill:#20292D;}
	.st8{opacity:0.4;fill:#298EB2;}
</style>
<path class="st0" d="M-0.5,239.5C640.67,444,1281.83,648.5,1923,853c-0.33,75.67-0.67,151.33-1,227c-435.5-0.17-871-0.33-1306.5-0.5
	c-205.33-60.33-410.67-120.67-616-181C-0.5,678.83-0.5,459.17-0.5,239.5z"/>
<polygon class="st1" points="-0.5,1079.5 615.5,1079.5 -0.5,898.5 "/>
<path class="st1" d="M0.5,211.5l1920,415c0.83,75.5,1.67,151,2.5,226.5C1281.83,648.5,640.67,444-0.5,239.5L0.5,211.5z"/>
<path class="st1" d="M1695-1c-150.33,160.33-300.67,320.67-451,481c225.67,49,451.33,98,677,147c0-209.33,0-418.67,0-628
	C1845.67-1,1770.33-1,1695-1z"/>
<path class="st0" d="M0.5,212L1437,273.71c-64.17,68.93-128.33,137.86-192.5,206.79C829.83,391,415.17,301.5,0.5,212z"/>
<g>
	<path class="st2" d="M-1,179C183,119,367,59,551-1h-54.8C330.46-1,164.73-1-1-1c0.33,55.33,0.67,110.67,1,166
		C-0.33,169.67-0.67,174.33-1,179z"/>
	<path class="st3" d="M-1,179C183,119,367,59,551-1h-54.8C330.46-1,164.73-1-1-1c0.33,55.33,0.67,110.67,1,166
		C-0.33,169.67-0.67,174.33-1,179z"/>
	<path class="st2" d="M-1,179C183,119,367,59,551-1h-54.8C330.46-1,164.73-1-1-1c0.33,55.33,0.67,110.67,1,166
		C-0.33,169.67-0.67,174.33-1,179z"/>
</g>
<polygon class="st1" points="0.5,211.5 1438.88,273.37 1695.5,-0.5 550.5,-0.5 0.5,178.5 "/>
<path class="st4" d="M0,168C172,112,344,56,516,0c11.67-0.33,23.33-0.67,35-1L0,178C0,174.67,0,171.33,0,168z"/>
<polygon class="st5" points="1678.22,0 1423.49,272.7 1437,273 1695,-1 "/>
<path class="st5" d="M1244,480l677,146c0-9.67,0-19.33,0-29c-222.33-42.33-444.67-84.67-667-127
	C1250.67,473.33,1247.33,476.67,1244,480z"/>
<path class="st6" d="M0,898l616,181c-5.67,0.33-11.33,0.67-17,1C399,1022,199,964-1,906C-0.67,903.33-0.33,900.67,0,898z"/>
<path class="st7" d="M1923,853L0,239l0.5-6.78C640.67,431.81,1280.83,631.41,1921,831C1921.67,838.33,1922.33,845.67,1923,853z"/>
<polygon class="st8" points="1423,273 1229.78,477.17 1244,480 1437,273 "/>
<polygon class="st8" points="1244,480 11.79,213.55 0,211 1255.75,467.39 "/>
</svg>
