<?xml version="1.0" encoding="utf-8"?>
<!-- Generator: Adobe Illustrator 24.2.0, SVG Export Plug-In . SVG Version: 6.00 Build 0)  -->
<svg version="1.1" xmlns="http://www.w3.org/2000/svg" xmlns:xlink="http://www.w3.org/1999/xlink" x="0px" y="0px"
	 viewBox="0 0 400 338" style="enable-background:new 0 0 400 338;" xml:space="preserve">
<style type="text/css">
	.st0{fill-rule:evenodd;clip-rule:evenodd;}
	.st1{fill:#FFFFFF;}
	.st2{fill-rule:evenodd;clip-rule:evenodd;fill:#D35B5B;}
</style>
<g id="Free_Homepage_Hero_Webkit_10">
</g>
<g id="Capa_2">
	<circle class="st0" cx="-209.5" cy="168.5" r="152.5"/>
	<g>
		<path class="st0" d="M-268.72,104.13c0.02-22.42,2.83-50.41,12.29-82.06h-66.89c-21.91,0-39.68,17.78-39.68,39.7v52.18
			C-339.8,108.15-307.41,102.68-268.72,104.13z"/>
		<path class="st0" d="M-166.27,320.41c-36.2-38.59-85.12-90.79-98.84-172.63c-20.11,1.68-36.48,4.52-48.03,6.58
			c-20.41,3.65-37.35,8.09-49.86,11.81V294.2c0,21.93,17.76,39.7,39.68,39.7h170.4C-157.32,329.68-161.78,325.2-166.27,320.41z"/>
	</g>
	<g>
		<path class="st1" d="M120.18,99.01c0.03-22.14,2.81-49.77,12.14-81.01H66.22C44.56,18,27,35.56,27,57.22v50.5
			C49.87,102.62,81.89,97.78,120.18,99.01z"/>
		<path class="st1" d="M27,153.73v133.05C27,308.44,44.56,326,66.22,326h168.42c-4.35-4.17-8.76-8.59-13.2-13.32
			c-36.45-38.84-85.98-91.61-98.44-175.1c-19.23,1.47-34.93,3.88-46.08,5.64C56.4,146.47,39.43,150.44,27,153.73z"/>
		<path class="st1" d="M327.78,18h-99.37c-6.06,15.15-12.44,34.61-16.73,57.73c-2.37,12.79-3.78,25-4.5,36.51
			c2.73,0.75,5.48,1.54,8.27,2.37c13.72,4.12,36.74,11.18,62.66,26.04c17.19,9.86,29.92,19.86,38.65,27.57
			c-39.52-16.81-75.05-24.16-99.36-27.68c-3.62-0.52-7.19-0.98-10.73-1.4c0.72,29.22,5.37,51.55,7.93,63.4
			c11.04,50.91,33.33,92.28,55.68,123.45h57.49c21.66,0,39.22-17.56,39.22-39.22V57.22C367,35.56,349.44,18,327.78,18z"/>
	</g>
	<path class="st2" d="M-57,168.87c0-74.19-53.17-135.94-123.45-149.22c-6.07,15.25-12.42,34.75-16.7,57.87
		c-2.46,13.26-3.9,25.93-4.61,37.83c2.16,0.71,4.17,1.39,5.98,2.01c13.67,4.66,36.6,12.64,62.41,29.47
		c17.12,11.17,29.79,22.5,38.48,31.24c-38.4-17.52-72.52-26.48-98.97-31.29c-2.79-0.51-5.53-0.97-8.25-1.41
		c1,27.79,5.43,49.04,7.92,60.54c8.83,40.75,24.78,75.46,42.24,103.8C-96.28,287.21-57,232.64-57,168.87z"/>
	<path class="st0" d="M516,1h97c-10.44,27.91-24.78,77.63-20,140c6.43,83.82,43.74,142.74,62,168c-7.11-3.35-17.35-8.57-29-16
		c-18.34-11.71-82.65-54.11-110-138C493.06,84.65,508.77,23.92,516,1z"/>
	<path class="st0" d="M627,106c-74.78-31.83-145.76-27.87-190-20.36v44.81c34.67-7.66,80.57-13.6,134-9.46
		c55.01,4.26,99.72,17.78,131,30C682.85,135.65,657.99,119.19,627,106z"/>
</g>
</svg>
