<?xml version="1.0" encoding="utf-8"?>
<!-- Generator: Adobe Illustrator 24.2.0, SVG Export Plug-In . SVG Version: 6.00 Build 0)  -->
<svg version="1.1" xmlns="http://www.w3.org/2000/svg" xmlns:xlink="http://www.w3.org/1999/xlink" x="0px" y="0px"
	 viewBox="0 0 384.3 575.4" style="enable-background:new 0 0 384.3 575.4;" xml:space="preserve">
<style type="text/css">
	.st0{fill:url(#SVGID_1_);}
	.st1{stroke:#FFFFFF;stroke-miterlimit:10;}
</style>
<g id="Capa_2">
	<radialGradient id="SVGID_1_" cx="192.1522" cy="287.7174" r="244.6464" gradientUnits="userSpaceOnUse">
		<stop  offset="1.916933e-07" style="stop-color:#28A5DF"/>
		<stop  offset="0.9598" style="stop-color:#325C70"/>
	</radialGradient>
	<rect class="st0" width="384.3" height="575.4"/>
</g>
<g id="Capa_1">
	<g>
		<g id="layer1_2_">
			<g>
				<path class="st1" d="M146.8,52.2c-0.9,0-1.8,0.4-2.6,1.3c-2.2,2.2-1.6,4.4,2.2,8.8l3.6,4l-5.7,5.9c-3.1,3.2-12.1,12.6-20.1,20.9
					c-16.5,17.3-23.5,26.9-25.4,35.6c-1.8,8.4-0.6,10.3,10.3,15.4c4.9,2.3,15.7,7.4,23.9,11.4c8.3,4,19.4,9,24.6,11.1
					c7.5,2.9,9.9,4.5,11,6.7c1.6,4.2,1.4,5.2-3.6,15c-5.3,10.8-5.5,17.7-0.8,29.4c3,7.4,3.1,8.8,2.5,18.7
					c-0.8,11.9-1.7,14.8-7.9,23.1c-4.5,6.2-5.7,8.3-18.3,34.1c-6.8,14-8.7,19.3-11.6,32.1c-2,8.4-3.8,15.7-4.2,16.3
					c-0.3,0.6,0,1.3,0.8,1.5c1,0.3,0.9,3.2-0.6,11.8c-1.2,6.1-2.5,18.6-3.1,27.6c-1,17.1-1.6,19.7-8.3,37.8
					c-5.2,13.9-6.2,18.5-8.9,40.2c-2,15.5-2.5,18-4.7,19.5c-2.1,1.5-2.3,2.4-1.7,6.6c0.6,3.8,0.2,6.1-1.7,9.8
					c-1.3,2.7-4.5,10.1-6.9,16.4c-2.4,6.4-6.1,13.4-8,15.6c-3.9,4.4-4.6,8-1.7,9c1.2,0.4,3.8,0.7,6.8,0.7c4,0,8.6-0.4,11.3-1.1
					c4.7-1.4,6.7-3.9,6.7-8.6c0-1.6,0.6-3.2,1.2-3.6c0.1-0.1,0.2-0.1,0.3-0.1c0.5,0,0.9,1.2,0.9,2.9c0,2.4,0.6,3.6,1.7,3.6
					c1.3,0,1.7-1.4,1.7-5.7c0-3.1,1-8.9,2.2-12.9s2.4-10.2,2.9-13.5c0.3-4.2,1.5-7.3,3.5-9.5c1.6-2.1,2.5-4.3,2.2-5.5
					c-0.3-1.3,2.5-8.8,6.6-17.7c7.1-15.1,11.6-29.8,13.3-42.7c0.5-3.5,2.2-9,3.8-12.1c1.6-3.2,6.7-15.8,11.3-28.2
					c4.6-12.3,8.7-22.5,8.9-22.8c0.1-0.1,0.3-0.1,0.7-0.1c1.1,0,3.4,0.3,5.9,0.8c3.4,0.6,9.4,1.2,13.4,1.2c4,0,7.4,0.1,7.4,0.3
					c0,5.8,4.4,32.5,6.9,42.1c2,7.2,3.5,14.1,3.5,15.6c0.1,4,4.2,12.4,8.7,17.2c2.2,2.4,5.5,7.5,7.4,11.2
					c1.8,3.7,7.3,12.4,11.9,19.3c13.6,20,15,22.9,13.6,26.5c-1.6,4.3-1.7,3.9,3.7,8.9l4.9,4.4l-2.8,8.1c-1,2.8-2,5.2-2.7,6.7h0
					c0,0,0,0.1,0,0.1c-0.1,0.4-0.2,0.8-0.4,1.2c-0.2,0.5-0.5,0.9-0.7,1.4h0c-0.3,0.7-0.4,1.1-0.4,1.1c0,0,0,0,0,0l-1.6,2.8l-1.1,1.9
					h0.5l-1.6,1.7h0c-0.3,0.5-0.5,0.7-0.6,0.8c-0.4,0.5-0.9,0.9-1.4,1.3h0c-5.4,5.5-5.4,8,0.2,9.2c2.3,0.5,5.1,0.7,8.1,0.7
					c6.7,0,14.1-1.2,16.6-3c1.8-1.4,3-3.2,2.8-4.5c-0.1-1-0.1-1.5,0-1.5h0c0.1,0,0.4,0.3,0.8,1c0.5,0.7,1,1.1,1.5,1.1
					c1.4,0,2.5-3.2,2.2-7.8c-0.1-3.5,0.6-8,2.1-11.9c4.2-10.8,3-16.4-5-24c-2.3-2.3-4.2-5.2-4.2-6.6c0-1.5-0.7-3.1-1.5-3.6
					c-0.8-0.5-2.9-6.4-4.6-13.1c-5.7-21.8-7.7-27.6-12.8-35c-2.7-3.9-7.1-8.8-9.7-10.6c-2.7-2-5.1-4.5-5.4-5.9c-1-3.6-1-17.3,0-39.4
					c0.7-15.5,1.3-20,2.5-20.5c1.2-0.5,1.4-1.5,0.8-3.2c-0.3-1.4-0.7-9.2-0.6-17.5c0.1-10.6-0.5-17-1.7-22.1
					c-1.3-4.6-2.1-13.1-2.3-25c-0.2-9.8-0.6-24.4-0.9-32.4c-0.5-12.1-0.1-16,1.8-23.5c1.3-4.9,2.8-9.1,3.2-9.5c0,0,0.1,0,0.1,0
					c0.5,0,2.1,2.9,3.4,6.5c3.7,9.8,8.8,14.9,14.7,14.9c3,0,5.4-0.8,7.2-2.4c2.4-2.3,2.5-2.9,1.8-16c-0.5-7.4-1.3-18.6-1.8-25
					c-0.7-6.4-1.6-16.4-2.2-22.3c-1.2-12.4-1.8-15-4.5-18c-1.6-1.8-1.8-5.8-1.8-29.5v-27.3l-3.2-5.4c-4.6-7.9-10.6-13.3-17.8-16
					c-3.9-1.5-6.6-2.2-9.1-2.2c-3.2,0-5.8,1.3-9.4,4.1c-5.8,4.3-8.9,7.9-12,13.8c-1,1.8-2.9,3.6-4.3,3.8c-1.6,0.2-2.5,1.5-2.9,4
					c-2.2,13.3-3,14.8-11.2,23.5c-4.4,4.7-8.1,9.1-8.1,9.7c0,0.7-0.6,1.1-1.8,1.1c-2.8,0-8.8-1.8-19.2-5.6c-8.4-3-19.1-6.5-23.7-7.6
					l-8.2-2l6.9-11.1c8.4-13.5,18.7-28.1,22.3-31.4l2.8-2.5l8.3,3.2c7.3,3,8.7,4,12.1,9.4c3.2,4.9,6.8,7.5,9.9,7.5
					c2.2,0,4.1-1.3,5.3-3.9c2-4.3,0.6-6.8-8.6-15.1c-4.4-4-7.1-7.3-6.7-8.3c0.3-0.8-0.3-2.5-1.5-3.9c-3.7-4-5-5.8-5-6.8
					c0-2-4.6-5.4-7-5.4c-0.2,0-0.4,0-0.5,0.1c-0.3,0.1-0.5,0.1-0.8,0.1c-1.4,0-2.9-1.2-5-4.1C150.4,53.7,148.5,52.2,146.8,52.2z"/>
			</g>
		</g>
	</g>
</g>
</svg>
