<?xml version="1.0" encoding="utf-8"?>
<!-- Generator: Adobe Illustrator 24.2.0, SVG Export Plug-In . SVG Version: 6.00 Build 0)  -->
<svg version="1.1" xmlns="http://www.w3.org/2000/svg" xmlns:xlink="http://www.w3.org/1999/xlink" x="0px" y="0px"
	 viewBox="0 0 384.3 575.4" style="enable-background:new 0 0 384.3 575.4;" xml:space="preserve">
<style type="text/css">
	.st0{fill:url(#SVGID_1_);}
	.st1{stroke:#FCFCFC;stroke-miterlimit:10;}
</style>
<g id="Capa_2">
	<radialGradient id="SVGID_1_" cx="192.1522" cy="287.7174" r="244.6464" gradientUnits="userSpaceOnUse">
		<stop  offset="1.916933e-07" style="stop-color:#28A5DF"/>
		<stop  offset="0.9598" style="stop-color:#325C70"/>
	</radialGradient>
	<rect class="st0" width="384.3" height="575.4"/>
</g>
<g id="Capa_1">
	<g id="layer1">
		<g>
			
				<image style="overflow:visible;opacity:0.16;" width="296" height="320" xlink:href="../../../../../../Iglesia/diseño/lineasBlancas.png"  transform="matrix(1.4188 0 0 1.4188 -15.7595 50.7355)">
			</image>
			<path class="st1" d="M204.7,74.6c-0.5,0.1-1,0.4-1.2,0.5c-0.2,0.2-2.2,0.4-4.3,0.6c-3.7,0.2-6.6,1.2-7.3,2.3
				c-0.1,0.2-1.5,0.9-3,1.5c-3.2,1.3-8.6,4.8-9,5.7c-0.1,0.3-1.2,1.1-2.2,1.7c-2,1-5.5,4.4-5.5,5.2c0,0.2-1.1,1.7-2.4,3.2
				c-5.2,6.2-5.4,7.4-3.4,20.7c0.5,3,1,7.1,1.2,9.1c0.2,2,0.6,4.4,0.8,5.2c0.2,0.8,0.4,2.6,0.4,4c0,2.5,0.7,7.1,1.8,11.8
				c0.3,1.5,0.5,2.8,0.4,3c-0.1,0.2-0.5,2.1-0.8,4.3c-0.3,2.2-0.8,4.4-1.1,4.9c-0.2,0.5-2.7,3.1-5.3,5.7
				c-4.7,4.6-8.9,10.1-11.3,14.9c-0.5,1-1.2,1.9-1.6,2.1c-0.5,0.3,0,1,2.8,3.7l3.5,3.3l0.6,3.9c0.3,2.2,0.7,6.1,0.8,8.8l0.2,4.9
				h-1.8c-1.8,0-3.7-0.2-15.3-1.4c-6.4-0.7-10.1-1.1-19.3-2.1c-3.2-0.4-8.4-0.9-11.4-1.2c-9-1-13.1-1.5-13.2-1.7
				c-0.1-0.1-0.5-0.7-0.8-1.5c-1.5-2.9-4.7-3.8-4.7-1.3c0,2.3-0.1,2.4-7.2,1.6c-6.8-0.8-10.6-1.9-11.7-3.5c-0.4-0.6-0.9-0.8-1.6-0.7
				c-0.6,0.1-1.2,0-1.3-0.2c-0.2-0.2-0.9-0.5-1.5-0.5c-0.7,0-1.3-0.2-1.5-0.6c-0.4-1-1.4-0.7-1.9,0.4c-0.4,0.8-0.7,1-2,1
				c-1.2,0-1.7-0.2-2-0.8c-0.2-0.5-0.7-0.8-1.2-0.8c-0.4,0-1.2-0.3-1.9-0.6c-1.5-0.8-2.3-0.5-2.3,0.6c0,1.2-1.6,1.1-2.1-0.2
				c-0.3-0.9-0.5-1-2.2-0.8c-1.3,0.2-2.2,0-2.9-0.5c-1.4-0.9-1.9-0.8-2.3,0.4c-0.4,1-0.5,1-3.8,0.8c-1.9-0.1-4.2-0.3-5.2-0.4
				l-1.8-0.2l-1,2.3c-0.6,1.3-1.7,2.8-2.5,3.5c-0.8,0.6-1.4,1.4-1.4,1.7c0,0.4-0.4,1-0.9,1.4c-0.6,0.5-0.8,1-0.6,1.6
				c0.1,0.5,0.4,1.5,0.6,2.2c0.2,0.7,0.7,1.9,1.2,2.7c0.6,0.9,0.9,2.2,0.9,3.4c0,3.3,1.1,3.7,11.8,4.1c0.4,0,0.7,0.3,0.7,0.7
				c0,0.3,0.3,0.6,0.6,0.6c0.3,0,0.6,0.2,0.6,0.4c0,0.2,0.3,0.4,0.7,0.4c1.2,0,1.7,0.8,1.5,2.1c-0.1,0.7,0,1.2,0.2,1.2
				c0.7,0,1.7-2.2,1.7-3.5c0-0.7,0.3-1.2,1.1-1.5c1.6-0.6,2.8-0.3,2.7,0.6c0,0.5,0.4,1,1,1.2c3.1,1.2,3.7,1.7,4,2.5
				c0.1,0.5,0.4,0.7,0.7,0.6c0.7-0.4,0.5-0.9-0.6-2.2c-1.7-2-1.1-2.6,2-2.5c1.9,0.1,2.6,0.3,2.5,0.7c0,0.3,0.2,0.6,0.5,0.7
				c0.3,0.2,0.6,0.6,0.6,1c0,1.5,3.2,2.2,4.8,1c0.9-0.7,0.6-1.8-0.6-2c-1.9-0.3-0.9-1,2.1-1.5c1.9-0.2,3.9-0.9,5-1.5
				c2.7-1.5,5-1.5,6.5,0.2c0.7,0.7,2.1,2,3.2,2.9c1.2,0.8,3,2.3,4.2,3.2c1.2,0.9,3.3,2.1,4.8,2.7c2.9,1.1,10.1,2.3,14.2,2.3
				c1.6,0,3.2,0.2,4.1,0.7c2.3,1.2,7.4,5.3,7.2,5.8c-0.1,0.3,0.2,0.5,0.5,0.5c0.4,0,3.3,2,6.4,4.3c11.6,9,20.4,14.7,24.9,16.5
				c0.8,0.3,2.2,0.9,3.1,1.2c2.2,1,6.4,2.6,9.7,3.7c1.7,0.7,2.6,1.2,2.6,1.6c0,1.3-3,5.6-6.2,8.9c-4.1,4.3-5.1,5.6-6.9,9.2
				c-0.8,1.6-2.3,4.2-3.4,5.8c-4,6.1-5.9,11-7.1,18.6c-0.2,1-1.3,3.2-3.3,6c-1.7,2.5-5,7.4-7.4,10.9c-2.4,3.5-6.3,9.6-8.6,13.6
				c-4,6.7-4.3,7.2-6.4,8.2c-3.1,1.7-4.8,3.1-5.8,4.7c-0.5,0.9-1.7,1.8-3,2.5c-4,2-5.7,3.6-9.3,8.5c-1.9,2.7-3.7,4.9-3.9,4.9
				c-0.2,0-0.7,0.6-1,1.3c-0.7,1.4-6.7,6.9-10,9.4c-2.4,1.7-6.4,6.3-8.1,9.2c-2.8,4.8-1.8,9.9,2.7,14.4c1.4,1.4,3.7,3.1,5,3.7
				c2.2,1.1,2.9,1.2,6.2,1.2c3,0,4.1-0.2,5.3-0.8c2.3-1.2,9.9-6.4,9.9-6.8c0-0.2,1-1.9,2.2-3.8c1.2-1.9,2.5-4.3,3-5.4
				c0.5-1,1.2-2.5,1.7-3.3c0.5-0.8,1-1.7,1-2c0-0.9,3.9-8.4,4.4-8.4c0.2,0,0.7-0.6,1-1.4c0.7-2,4.1-7.9,4.7-8.3
				c0.3-0.2,1-0.3,1.6-0.3c1.5,0,2.1-0.7,2.1-2.3c0-1.2,2.4-5.9,4.1-7.8c1-1.1,5.1-4.1,5.3-3.9c0.1,0.1-0.1,1.2-0.5,2.5
				c-0.8,2.7-0.7,12.9,0.2,22.7c0.2,3.1,0.7,9.1,1.1,13.3c0.4,4.7,1,9.4,1.6,11.9c0.5,2.2,1.5,6.2,2.1,8.7c1.7,7.2,4,13.7,8.2,23.7
				l4,9.1l-0.5,5c-0.5,4.8-4.7,37.8-5.6,44.2c-0.3,2.2-0.3,3.2,0,3.6c0.7,0.9,6.4,2,8.6,1.6c1.6-0.2,2.3-0.7,3.8-2.2
				c1-1.1,2.4-2.6,3-3.5c2-2.6,2.4-2,1.2,1.8c-0.5,1.9-1,3.7-1,4c0,0.3-0.5,1.2-1,2c-0.6,0.7-1,1.9-1,2.5c0,1.3-1.9,6.3-2.7,7.3
				c-0.3,0.3-0.6,1-0.6,1.4c0,0.4-0.4,1.4-0.9,2.2c-0.8,1.3-0.9,1.9-0.7,7c0.1,6.2,0.5,7.1,3.3,8.7c1.2,0.7,2.2,0.8,8.3,0.8
				c6.2,0,7.1-0.1,9.3-1c1.4-0.5,3.3-1.7,4.3-2.7c2.8-2.6,3.5-4.4,3.7-10.4c0.2-7.4,1-10.9,3.8-16.9c3.2-7,3.7-11.2,1.5-15.8
				c-2.3-4.9-2.5-4.6,2.5-4.5c4,0.1,4.4,0,6-1c2-1.2,2.2-1.7,2.3-5.7l0.1-2.7l2.3,0.1c1.2,0.1,4,0.3,6.1,0.6l3.8,0.5l0.2,5.9
				c0.1,3.2,0.3,11.8,0.5,19c0.2,9.5,0.4,13.2,0.7,13.4c1.3,0.9,4.2,1.2,7.9,1.1c3.2-0.2,4.3-0.4,5.2-1l1.1-0.8l0.1-19.1l0.1-19.2
				l4.4-2.3c2.4-1.3,6.7-3.5,9.6-4.9c5.8-3,6-3,6,0.7c0,1.2,0.2,3.6,0.4,5.4c0.2,1.8,0.6,6.4,0.9,10.2c0.2,3.8,0.7,7.2,0.9,7.6
				c0.6,1.2,3.6,2.3,7.3,2.6l3.3,0.3l1.5-1.4l1.5-1.4l-0.4-3.5c-0.2-2-0.5-5.7-0.8-8.3c-0.2-2.6-0.6-6.7-0.9-8.9
				c-0.2-2.3-0.7-7.5-1-11.6c-0.4-4.1-0.8-9.2-1-11.2c-0.2-2.1-0.6-6-0.8-8.7c-0.6-7.5-1.2-14.1-1.7-18.3c-0.2-2.1-0.7-7-1-11
				c-0.3-4-0.8-9-1-11c-0.2-2.1-0.6-6-0.8-8.7c-0.2-2.7-0.7-7.9-1.1-11.4c-1-10.4-1.7-17.9-1.5-18.1c0.1-0.1,1.1-0.2,2.1-0.2
				c1.1,0,2.2-0.2,2.4-0.5c0.2-0.2,0.5-1.9,0.6-3.6c0.1-2,1-6.2,2.3-11.2c4.4-16.8,5.3-23,5.7-37.3c0.2-5.3,0.4-9.6,0.5-9.6
				c0,0,1.5,0.3,3.2,0.7c2.2,0.5,4.9,0.7,9.5,0.7c5.8,0,6.8-0.1,10.2-1.1c4.9-1.5,9.2-4,13.1-7.6c3.8-3.5,6.6-7.5,9.5-13.3
				c6.9-13.8,10-26.7,10-41.5c0-8.5-0.5-13-2.3-19.7c-0.6-2.2-1-4-1-4.2c0-0.2,2-1.9,4.5-3.9c6.5-5.2,10.5-9.1,10.5-10.2
				c0-3.2-5.4-9.4-12.2-13.9c-5.7-3.7-9-5.6-13.6-7.5c-2-0.8-4.1-1.7-4.8-2.1c-0.7-0.3-3.5-1.4-6.2-2.5c-6.6-2.6-7.4-3.2-8.3-5.4
				c-0.4-1-1.4-2.4-2.2-3.1c-1.2-1-1.8-1.2-3.4-1.2c-1.5,0-2.5-0.3-4.7-1.7c-1.5-0.9-3.4-1.9-4.2-2.1c-0.8-0.3-2.2-0.8-3.1-1.3
				c-3.2-1.7-8.2-3.2-9.1-2.9c-0.5,0.2-1.7,0.1-3-0.2c-1.3-0.4-4.1-0.6-7.5-0.6c-5.3,0-18.5-1.2-21.4-2c-3.3-0.9-5.7-2.4-6.8-4.3
				c-1.2-2-1.4-3.4-0.5-3.9c0.3-0.2,0.8-0.8,1.2-1.4c0.4-0.6,1.3-1.8,2-2.8c0.7-1,1.2-2,1.2-2.2c0-0.2,0.5-1.2,1-2.3
				c2.2-4.1,2.5-6,2.5-15.2c0-5.9-0.2-9.1-0.6-10.4c-0.7-2.5-2-5.3-3.1-6.9c-0.5-0.7-1.2-2-1.7-2.8c-0.9-1.8-2.2-3.2-5.6-6.3
				c-5-4.5-5.4-4.8-7.9-5.3c-1.5-0.3-2.9-0.9-3.5-1.5C207.4,74.4,206.5,74.2,204.7,74.6z M48.1,196.9c0,2.2-1,3.3-2.3,2.8
				c-0.9-0.3-0.8-2.5,0.1-3C47.1,196,48.1,196.1,48.1,196.9z M57.2,196.9c0.3,0.2,0.4,0.9,0.2,2.2l-0.2,1.9l-2.2-0.2
				c-4.1-0.3-4.4-0.6-4.1-3.2c0.2-1.1,0.2-1.1,3-1.1C55.4,196.6,56.9,196.8,57.2,196.9z M67,198.1c0.5,0.3,0.2,3-0.4,3.5
				c-0.4,0.3-1.4,0.3-3.5,0l-2.9-0.5l0.2-1.5c0.1-0.9,0.2-1.7,0.2-1.9C60.6,197.4,66.3,197.8,67,198.1z M73.3,199.7
				c0.4,1.7,0,2.3-1.9,2.3c-2,0-2.1-0.2-1.6-2c0.3-1.2,0.5-1.3,1.8-1.3C72.8,198.7,73.1,198.8,73.3,199.7z M46.4,208.9
				c-0.1,1.5-0.2,1.6-1.6,1.6c-1.1,0-1.5-0.2-1.6-0.7c-0.2-1,1.1-2.4,2.3-2.4C46.4,207.4,46.5,207.6,46.4,208.9z M55.8,207.7
				c0.1,0.2,0.1,1,0,1.8l-0.2,1.5l-3.2-0.1c-3.2,0-3.2,0-3.3-1.2c-0.2-2.2,0-2.4,3.4-2.4C54.2,207.4,55.7,207.6,55.8,207.7z
				 M65.7,208.4c0.2,0.2,0.2,0.9,0.2,1.5c-0.2,1.2-1.1,1.5-4.7,1.3c-2.9-0.2-3.1-0.4-2.5-2.9c0.2-0.9,0.4-0.9,3.5-0.7
				C64,207.8,65.5,208.1,65.7,208.4z M71.9,208.9c0.6,1.3,0.3,1.6-1.8,1.6c-1.4,0-1.8-0.1-1.9-0.7c-0.3-1.4,0.2-2,1.8-2
				C71.1,207.8,71.6,208,71.9,208.9z M131.1,219.7c2.5,0.3,6,0.8,7.7,1c1.7,0.2,5.8,0.8,9.1,1.2c3.3,0.5,6.8,0.9,7.8,1
				c1.6,0.2,1.7,0.3,1.7,1.5c0,1.8-0.9,6.7-1.2,7.2c-1,1-9.1-0.3-14.7-2.4c-2.8-1.1-14.3-6.7-15.2-7.4c-0.3-0.3-1-1-1.4-1.7
				l-0.7-1.1h1.1C126,219,128.6,219.3,131.1,219.7z M238,334.6c0.3,0.5,1.2,8.5,1.9,17.5c0.2,2.9,0.5,5.9,0.6,6.9s0.6,5.9,1,11
				c0.5,5.2,0.9,10.4,1,11.6c0.4,3.3,2.1,22.5,3.1,33.7c0.2,2.6,0.5,5.5,0.7,6.4c0.1,0.9,0.4,4.1,0.6,7.1c0.2,3,0.5,6,0.7,6.8
				l0.2,1.4l-2.7-0.2c-3.7-0.4-16.5-2.3-16.5-2.5c0,0-0.2-14.1-0.4-31.3c-0.2-17.2-0.5-39-0.7-48.5l-0.3-17.3l1.8-0.5
				c1-0.3,3.2-1,4.9-1.5C237.7,334.1,237.6,334.1,238,334.6z M192.7,336.7h1.5l-0.3,2.6c-0.1,1.5-0.4,6.5-0.7,11.4
				c-0.2,4.8-0.6,12.4-0.8,16.8c-0.2,4.4-0.7,13.8-1,20.8c-0.3,7-0.8,16.4-1.1,21c-0.2,4.6-0.6,11.4-0.7,15.1l-0.3,6.8l-1.2,0.7
				c-1.8,1-8.1,3.7-8.5,3.7c-1,0-2.5-14.7-2.5-24.1c0-4.7-0.3-8.2-1.2-14.6c-0.7-4.7-1.2-9.4-1.2-10.6c0-1.8,1.2-12.5,2.5-21.4
				c0.2-1.5,0.6-4.7,0.9-7.1c0.2-2.4,0.7-5,1.1-5.8c0.6-1.5,3-5.2,5.7-9c0.8-1.2,2-2.8,2.5-3.7c1.5-2.3,2.6-3.3,3.4-3
				C191,336.6,191.9,336.7,192.7,336.7z M212.1,338.3c0.1,0.1,0.5,18.3,0.7,40.4c0.2,22.1,0.6,43.2,0.7,46.9l0.2,6.8l-2.1-0.3
				c-2-0.2-8.4-1.8-8.7-2c-0.1-0.2,0.2-7.1,1.3-29c0.3-6.5,0.8-15.9,1-20.8c0.2-4.9,0.6-12.3,0.9-16.4c0.2-4.1,0.6-11.5,0.9-16.4
				c0.2-4.9,0.5-9.1,0.6-9.4C207.8,337.6,211.5,337.8,212.1,338.3z M210.7,441.6c1.4,0.2,2.6,0.7,2.6,0.9c0.1,1.1-0.1,10-0.2,10.1
				c-0.1,0.2-10.7-1.2-11-1.4c-0.2-0.2-0.1-5.7,0.2-8.4l0.3-2.2l2.7,0.2C206.8,441,209.2,441.3,210.7,441.6z M187.9,443.7
				c0,0.2,0,1.3,0,2.5c0,3.2-0.2,3.3-3.3,2.8c-3.7-0.6-4.2-0.7-4.2-1.6c0-0.9,0.2-1,4-2.8C187.1,443.3,187.9,443,187.9,443.7z
				 M233.7,445.1c2.1,0.4,4,0.7,4,0.8s-1.8,1.1-4.1,2.3s-4.3,2.1-4.4,2c-0.1-0.1-0.3-3.7-0.2-5C229,444.3,228.9,444.3,233.7,445.1z
				 M186.6,461.1c0.9,0.3,1,0.5,0.7,2.3c-0.1,1-0.2,2.9-0.2,4.1c0,1.2-0.2,2.2-0.4,2.2c-0.2,0-0.8-0.7-1.2-1.7
				c-0.5-1-1.1-1.8-1.5-1.9c-0.7-0.3-1.9-3.2-1.9-4.7c0-1.2,0-1.2,1.8-1C184.8,460.6,186,460.9,186.6,461.1z M165.8,467.1
				c0.9,2,1.1,6.3,0.5,11.4c-0.2,2.5-0.3,2.6-1.7,3.2c-0.8,0.3-1.6,0.5-1.8,0.2c-0.2-0.2-0.2-1.7,0-3.2c0.2-1.6,0.5-4.7,0.8-6.9
				c0.6-5.2,0.8-6.7,1.1-6.7C165,465.2,165.4,466.1,165.8,467.1z"/>
		</g>
	</g>
</g>
</svg>
