<?xml version="1.0" encoding="utf-8"?>
<!-- Generator: Adobe Illustrator 24.2.0, SVG Export Plug-In . SVG Version: 6.00 Build 0)  -->
<svg version="1.1" xmlns="http://www.w3.org/2000/svg" xmlns:xlink="http://www.w3.org/1999/xlink" x="0px" y="0px"
	 viewBox="0 0 384.3 575.4" style="enable-background:new 0 0 384.3 575.4;" xml:space="preserve">
<style type="text/css">
	.st0{fill:url(#SVGID_1_);}
	.st1{stroke:#FFFFFF;stroke-miterlimit:10;}
</style>
<g id="Capa_2">
	<radialGradient id="SVGID_1_" cx="192.1522" cy="287.7174" r="244.6464" gradientUnits="userSpaceOnUse">
		<stop  offset="1.916933e-07" style="stop-color:#28A5DF"/>
		<stop  offset="0.9598" style="stop-color:#325C70"/>
	</radialGradient>
	<rect class="st0" width="384.3" height="575.4"/>
</g>
<g id="Capa_1">
	<g>
		<g id="layer1_2_">
			<g>
				<path class="st1" d="M197.5,69.9C191,72.4,185,78,182.1,84.3c-1.6,3.3-2.6,5.7-3,6.9c-0.3,0.7-0.8,2.1-1.2,3.1
					c-0.4,1-1,3.4-1.3,5.2c-0.4,1.8-0.8,3.7-1.1,4.3c-0.7,1.9-1.8,8-2.1,12c-0.8,10.7-1.1,12-2.9,14.7c-0.5,0.7-1.1,2-1.3,2.8
					c-1.3,5.2-7,12.3-11.7,14.7c-1.2,0.6-2.4,1.1-2.6,1.1c-0.8,0-5.8,2.4-6.7,3.3c-2.6,2.4-4.6,3.4-10.8,5.4
					c-1.4,0.4-2.6,0.9-2.7,1.1c-0.1,0.2-0.4,0.3-0.8,0.3c-1,0-6.6,3.4-9.9,6c-5.2,4.1-9.8,7-16.5,10.3c-3.5,1.7-6.7,3.4-7.1,3.6
					c-0.4,0.2-2.5,1.4-4.7,2.6c-2.2,1.2-4.5,2.6-5.2,3.1c-0.7,0.5-1.8,1.3-2.6,1.8c-2.3,1.4-7.9,6.1-9.6,8c-0.9,1-2.3,3.1-3.2,4.6
					c-1.3,2.4-1.6,3.2-1.6,4.6c0,1.8,1.1,5.1,2.4,7.3c0.4,0.7,0.6,1.5,0.5,1.8c-0.1,0.3-1.3,1-2.8,1.5c-3.1,1.1-6.4,3.1-9.7,5.7
					c-2.5,1.9-5.4,4.8-5.4,5.3c0,0.2-0.7,1.2-1.5,2.2c-0.8,1.1-1.7,2.4-1.9,3c-0.6,1.4-2.1,6-2.1,6.6c0,0.2-0.2,0.6-0.5,0.9
					c-0.8,0.6-0.8,17.5,0,18.5c0.3,0.4,0.5,1.1,0.5,1.7c0,1.5,1.7,9.7,2.9,13.9c0.3,0.9,1.1,4.2,1.8,7.1c0.7,2.9,1.6,6.4,2.1,7.6
					c0.4,1.2,1.2,3.4,1.7,4.8c0.8,2.5,2.9,7,5.7,12.4c1.7,3.1,4.4,6.5,6.9,8.7c1.1,0.9,2.2,1.9,2.5,2.1C77,315,78.5,316,80,317
					c6.5,4.3,11.7,5.8,20.3,5.7c3.6,0,5.5-0.1,6.6-0.5c0.8-0.3,1.8-0.5,2.1-0.5c2,0,12.9-4.8,16.7-7.4c0.9-0.6,2.4-1.5,3.2-1.9
					c1.5-0.8,7.9-5.5,9.8-7.2c1.2-1.1,1.9-0.8,2.2,0.9c0.4,2.3,1.6,7.5,2.1,9c1.4,4.2,5.9,10.2,12.1,16.1c1.6,1.5,2.5,2.8,3.5,4.9
					c1,1.9,1.9,3.2,3,4.1c1.9,1.6,2,2.5,0.5,4.5c-1.2,1.6-1.4,3.6-0.6,5.6c0.2,0.6,0.6,1.9,0.7,2.8c0.4,2.9,1.2,6.7,1.6,7.4
					c1.8,3.2,1.9,4.1,1,8.4c-0.5,2.4-1.7,9.3-1.9,10.9c-0.5,4-1.3,9.5-1.9,13.1c-0.4,2.3-0.9,5.3-1,6.7c-0.2,1.4-0.5,3.4-0.7,4.3
					c-0.3,1.6-0.9,5.4-1.8,11.9c-0.8,5.6-1.9,13.3-2.5,15.9c-0.4,2.1-1.1,7-1.7,11.2c-0.2,1.5-0.6,4.1-0.8,5.7
					c-0.3,1.6-0.8,4.8-1.1,7.1c-0.3,2.3-0.7,4.9-0.9,5.9c-0.2,0.9-0.4,3.2-0.6,4.9c-0.2,1.8-0.4,3.4-0.6,3.6
					c-0.2,0.3-0.6,2.6-1.7,11.1c-0.3,2-0.7,4.4-0.9,5.4c-0.4,2.1-1.1,6.2-1.5,9c-0.1,1.1-0.4,3.3-0.7,4.7c-0.4,2.5-0.3,2.7,0.3,4
					c1.1,2,2.7,3,5.1,3c1.7,0,2-0.1,2.8-0.9c1-1.1,1.3-2.3,2-7.7c0.9-6.3,1.9-12.6,2.2-14.5c0.2-1,0.5-3,0.7-4.7
					c0.2-1.6,0.7-5,1.1-7.4c0.4-2.5,0.9-6.1,1.2-8c1.2-8.5,1.2-8.5,2.1-12.7c0.3-1.6,1.4-1.4,11.2,1.9c4.3,1.5,6.7,2.2,8.7,2.7
					c2.1,0.5,7.8,2.5,8.2,2.8c0.3,0.3,0.4,1.8,0.4,5.5c0,5.5,0.2,6.4,1.8,7.7c2,1.7,3,1.9,4.7,0.9c1.9-1.2,2.4-2.4,2.6-6.6
					c0.1-2.1,0.3-4,0.5-4.1c0.2-0.2,1.6,0.1,3.3,0.7c1.6,0.5,3.9,1.2,5.2,1.6c3.1,0.9,3.2,1,3.5,11.7c0.2,4.7,0.4,10.5,0.5,12.6
					c0.1,2.2,0.3,12,0.5,21.8c0.2,15.7,0.3,18,0.8,18.9c2,3.9,8.1,4.3,9.6,0.7c0.6-1.3,0.6-10,0-20.7c-0.2-3.9-0.6-15-0.7-24.7
					l-0.4-17.6l0.8-0.7c1.6-1.4,2.5-2.1,3.6-2.9c1.2-0.7,1.2-0.7,3.2-0.1c1.1,0.3,2.6,0.9,3.3,1.3c0.7,0.3,2.4,1.2,3.7,1.9
					c3.9,2,5.9,2.4,11.1,2.4c5.4,0,5.4,0,6,3.6c1.3,8.4,1.9,11.5,2.6,14.7c0.3,1.2,0.5,2.6,0.5,3c0,1.1,1.8,3,3.6,3.7
					c1.5,0.6,1.6,0.6,3-0.1c0.8-0.4,1.7-0.9,1.9-1.1c0.7-0.8,1.6-3.8,1.3-4.4c-0.1-0.3-0.4-1.9-0.7-3.5c-0.2-1.6-0.8-4.7-1.2-6.9
					c-0.4-2.2-0.9-4.9-1-6.1c-0.2-1.1-0.5-3-0.7-4.2c-0.4-2.5-0.4-5-0.1-5c0.2,0,1.2-0.9,2.2-1.9l2-1.9v-2.3c0-1.3,0.2-2.8,0.4-3.5
					c0.3-0.9,0.3-1.3-0.2-2.4c-0.3-0.7-0.6-2-0.6-2.9c0-0.9-0.1-1.8-0.3-1.9c-0.1-0.1-0.4-0.8-0.5-1.6c-0.1-0.8-0.4-1.7-0.8-2
					c-0.3-0.4-0.8-1.7-0.9-3c-0.5-3.6-0.7-19.9-0.3-22.9c0.2-1.4,0.5-4.4,0.7-6.5c0.2-2.1,0.5-4.2,0.7-4.5c0.2-0.3,0.4-2.3,0.6-4.4
					c0.1-2.1,0.6-5.7,1.1-8c0.4-2.3,1.1-5.5,1.3-7.1c0.3-1.6,0.7-3.9,0.9-5c0.2-1.1,0.4-5.7,0.5-10.1c0.1-6.6,0.2-8.2,0.7-8.8
					c0.8-1.1,0.7-1.9-0.3-2.8c-0.9-0.8-0.9-0.9-0.9-6.1v-5.2l-1.2-1.7c-0.7-0.9-1.2-2-1.2-2.5c0-0.5-0.2-1.1-0.4-1.6
					c-0.2-0.4-0.5-1.6-0.7-2.7c-0.2-1.1-0.6-3.4-1-5.2c-0.4-1.8-0.9-4.8-1.1-6.7c-0.3-3.4-1-8.2-1.7-11.8c-0.2-1-0.4-2.4-0.6-3.3
					c-0.5-3.7-3.9-13.1-6.3-17.6c-3.1-5.9-3.9-7.4-3.9-8c0-0.3-0.6-1.4-1.4-2.4c-0.8-1-1.8-2.8-2.3-3.8c-1.3-2.6-4.6-6.8-5.7-7.3
					c-0.6-0.2-1.5-1-2.1-1.7c-1-1.1-2.6-2.3-4.6-3.4c-1-0.6-1.6-1.8-1.6-3.9c0-1.8-0.8-4-2-5.3c-0.4-0.4-0.6-1.5-0.6-3.5
					c0-1.6-0.2-3.1-0.4-3.4c-0.2-0.3-0.4-1.5-0.5-2.7l-0.1-2.2l2.1-0.4l2.1-0.4l2.2,2.2c1.3,1.4,2.9,2.6,4.1,3.1
					c1.7,0.8,2.3,0.9,6.1,0.9c3.4,0,4.6-0.1,6.6-0.8c2.7-0.9,4.4-1.6,5.7-2.2c0.5-0.2,1.4-0.6,2.1-0.7c0.7-0.1,2.5-0.8,4.2-1.6
					c3.2-1.6,2.6-1.5,15.1-2.4c3.6-0.2,3.9-0.3,4.8-1.2c0.5-0.5,1.7-1.3,2.5-1.7c1.6-0.9,2.1-1.6,4-5.8l1.2-2.6l2.2-0.6
					c2.8-0.7,5.1-1.2,7.9-1.8c1.2-0.3,2.8-0.7,3.4-0.9c1.6-0.6,7.8-0.3,9.2,0.5c0.6,0.3,1.7,0.6,2.6,0.5c2.2,0,2.3,0,1.4,0.7
					c-0.7,0.6-0.8,0.7-0.4,1.8c0.8,2.3,4.1,2.9,6.1,1.1c1.5-1.3,0.9-4.3-0.9-4.3c-1.2,0-0.1-0.9,1.6-1.3c3.5-0.9,6.1-1.5,6.7-1.5
					c1.1,0,1.6,0.8,1.3,2.2c-0.4,2.4,1.6,4.1,3.2,2.6c1-0.9,1-2.1,0.1-3.9c-0.3-0.8-0.6-1.5-0.5-1.6c0.1-0.2,0.8-0.3,1.6-0.3
					c0.8,0,1.8-0.2,2.3-0.5c0.5-0.2,2.1-0.6,3.4-0.7c2.8-0.2,3.2,0,3.2,2.1c0,1.2,1.2,2.8,2.1,2.8c1,0,1.3-0.9,1-2.6
					c-0.2-0.8-0.4-1.8-0.5-2.4l-0.2-0.9h2.3c2.9,0,3.8-0.7,4.1-3.3c0.1-1,0.7-2.7,1.3-3.8c1.2-2.4,1.2-3,0.6-5
					c-0.3-0.8-0.6-2.4-0.8-3.5c-0.2-2-0.3-2.2-1.9-3.6c-0.9-0.8-2.3-2.3-2.9-3.4c-1.4-2.3-2.3-2.7-3.8-1.9c-0.6,0.3-1.6,0.6-2.1,0.6
					c-0.9,0-1.1-0.2-1.6-1.3c-0.3-0.7-0.7-1.8-0.8-2.5c-0.2-0.9-0.4-1.2-1-1.3c-0.7-0.1-0.8,0-0.6,0.5c0.1,0.3,0.3,1.7,0.4,3.1
					c0.2,3.3,0.1,3.4-7.1,5.5l-2.2,0.6l-0.6-0.8c-0.7-0.8-0.7-0.8,0.2-1.5c1.8-1.4,0.5-4.4-1.9-4.4c-1.5,0-1.8,0.8-1.5,4.4
					c0.2,3.5,0.2,3.6-2.2,4.2c-0.8,0.2-2.1,0.6-2.9,0.8c-0.8,0.2-2.2,0.4-3.2,0.5h-1.8v-2.3c0-2-0.1-2.5-0.9-3.2
					c-0.9-1-1.5-1.1-2.2-0.3c-0.7,0.7-0.7,3.1,0,4.4c0.3,0.5,0.5,1.2,0.5,1.6c0,0.6-1.3,1.4-2.1,1.4c-0.2,0-1.2,0.8-2.1,1.8
					c-2.1,2.2-5.3,4.2-8.1,4.9c-1.1,0.3-3.9,0.8-6.3,1.2c-2.4,0.4-5.3,1-6.5,1.2c-1.2,0.3-2.8,0.5-3.6,0.5c-1.3,0-1.5-0.1-1.9-1.3
					c-0.8-1.8-1.8-2.8-3-2.8c-1.3,0-2.6,1.5-2.9,3.4c-0.1,0.8-0.3,1.5-0.5,1.5c-0.1,0-0.8-0.4-1.5-0.9c-1.5-1-2.2-1.1-3.9-0.2
					c-1,0.5-1.5,0.6-2.1,0.3c-0.9-0.4-2.8-0.1-2.8,0.4c0,0.2-0.8,1.1-1.8,2.2c-1.7,1.7-2,1.9-4.1,2.3c-1.2,0.2-2.9,0.6-3.8,0.7
					c-3.6,0.7-6.6,1.1-6.8,0.9c-0.6-0.6-1.7-6.4-2.4-13.2c-0.7-6.1-0.7-12.5-0.1-16.3c0.4-2.3,0.4-2.5,1-2.1c1,0.6,3,8.1,3.1,11.6
					c0,1.1,0.2,3,0.4,4.2l0.4,2.2l0.4-2c0.3-1.5,0.3-2.7,0.1-4.8c-0.6-4.9-1.3-9.4-1.6-9.8c-0.1-0.2-0.4-1.4-0.7-2.7
					c-0.3-1.3-1-3.9-1.7-5.8c-0.7-2.1-1.5-5.4-2-8.3c-1-6.6-1.9-9.8-3.5-12.7c-0.7-1.4-1.9-3.6-2.6-4.9c-0.7-1.3-1.5-2.7-1.7-2.9
					c-0.7-0.9-4.9-8.1-5.8-10.1c-0.9-1.8-1.5-3.8-2.8-8.9c-0.3-1-0.7-3.4-1-5.4c-0.5-3.2-0.8-5.9-1.8-16.6c-0.2-2.1-0.5-5.1-0.7-6.6
					c-0.2-1.5-0.3-3.7-0.3-4.8c0-2-0.6-6.9-1.3-10.9c-1.3-7.5-6.1-16.7-10.3-19.9c-3.2-2.4-7.3-4.3-10.3-4.6c-1.3-0.2-3.6-0.6-5-0.9
					C199.7,69.5,198.9,69.4,197.5,69.9z M141.9,188.1c1,0.7,1.8,1.8,5.1,7.3c1.8,2.9,1.8,2.9,1.8,6c0,1.9,0.2,3.5,0.5,4.3
					c0.3,0.7,0.6,2.6,0.8,4.3l0.2,3l-1.1,0.8c-1.2,0.8-4.3,1.6-6.5,1.5c-9.9-0.3-12-0.5-15-1.1c-1.9-0.4-4.4-0.9-5.7-1.2
					c-1.3-0.3-2.9-0.8-3.5-1.2c-1.3-0.8-6-5.8-6-6.4c0-0.2-0.2-0.6-0.5-0.8c-0.7-0.6-0.7-1.3,0.1-1.6c0.3-0.1,1.5-0.7,2.7-1.2
					c1.1-0.5,2.3-1.1,2.6-1.2c0.3-0.1,1-0.5,1.6-0.9c0.6-0.4,1.5-0.9,2.1-1.2c1.3-0.7,2.4-1.3,2.6-1.6c0.1-0.1,2.4-1.4,5.2-2.8
					c6.2-3.2,7.3-3.8,7.3-4.2c0-0.1,0.2-0.2,0.4-0.2s0.7-0.2,0.9-0.4c0.4-0.4,3-1.6,3.5-1.6C140.9,187.5,141.4,187.8,141.9,188.1z
					 M228.7,224.8c0,0.3,0.2,1.2,0.5,1.9c0.9,2.1,1.2,4.3,0.6,4.7c-0.5,0.4-2.4,0.6-2.8,0.2c-0.1-0.1-0.3-0.9-0.5-1.7
					c-0.1-0.8-0.4-1.9-0.5-2.4c-0.3-1.4,0.7-3.4,1.8-3.4C228.5,224.1,228.7,224.4,228.7,224.8z M220.5,346.5
					c0.3,0.3,0.6,0.7,0.6,0.9c0,0.2,0.2,0.7,0.5,0.9c0.2,0.3,0.6,1,0.8,1.6c0.2,0.6,0.9,2.6,1.6,4.5c0.7,2,1.2,4.1,1.2,5
					c0,1.1,0.4,2.4,1.4,4.3c1.5,3,1.6,3.8,0.9,4.8c-0.3,0.4-0.5,1.1-0.5,1.6c0,1,1,3.8,1.6,4.6c0.4,0.6,0.6,2.9,0.2,3.9
					c-0.2,0.6-1.2,0.7-2.2,0.2c-0.4-0.2-1.5-0.5-2.5-0.7c-1.5-0.3-4-1.1-4.7-1.6c-0.1,0-0.3-4.6-0.4-10.1
					c-0.2-5.5-0.4-11.3-0.6-12.9c-0.4-4-0.1-7.2,0.6-7.4C219.9,345.9,220,346,220.5,346.5z M207.9,366.2c0.1,5.4,0.1,7.1-0.2,7.2
					c-0.2,0.1-0.5,0-0.6-0.1c-0.1-0.2-0.2-3.4-0.3-7c-0.1-6.1,0.1-8,0.8-7.4C207.7,359.1,207.8,362.3,207.9,366.2z M224.9,384.5
					c0.9,0.2,2,0.6,2.7,0.7c1.3,0.3,1.3,0.4,1.7,6.3l0.2,3.9l-2.3,1.9c-2.9,2.3-6.4,4.2-6.7,3.7c-0.1-0.2-0.3-4.1-0.4-8.6
					c-0.1-6.1-0.1-8.3,0.2-8.5C220.6,383.6,222.7,383.9,224.9,384.5z M230.7,404.4c0.2,0.5,0.5,2.9,0.6,5.3c0.2,3.7,0.1,4.7-0.5,6.9
					c-0.4,1.4-0.8,3.3-0.9,4.2c-0.4,2.8-1.2,4.8-1.9,4.8c-1,0-4.9-1-6-1.6c-0.8-0.4-0.9-0.7-1.2-3.1c-0.4-4-0.3-10.3,0.2-11.2
					c0.2-0.4,1.1-1.2,1.9-1.8c0.8-0.5,2.6-1.8,4-2.8c1.4-1,2.8-1.8,3-1.7C230.1,403.4,230.5,403.9,230.7,404.4z M169.4,414.5
					c0.5,0.4,1.2,0.7,1.7,0.7c0.8,0,1.2,0.6,1.2,1.7c0,1.1,1.4,3.8,2.3,4.4c0.4,0.3,0.8,0.8,0.8,1.2c0,0.3,0.3,1,0.7,1.4
					c0.4,0.4,0.8,1,1,1.2c0.1,0.2,0.4,0.6,0.5,1c0.2,0.6,0.6,0.6,4.8,0.4c3.8-0.2,4.4-0.1,3.6,0.2c-0.5,0.2-1.6,1.1-2.4,1.8
					c-1.6,1.5-3.6,2.9-3.9,2.9c-0.2,0-2.2,1.4-2.6,1.7c-0.4,0.5-7.4,4.9-9.4,6c-2.3,1.3-3.2,1.5-3.5,1c-0.1-0.1,0.1-2,0.5-4.2
					c0.3-2.2,0.9-5.5,1.2-7.4c1.3-8.6,2.3-14.7,2.5-14.7C168.5,413.8,168.9,414.1,169.4,414.5z M207.7,430.8c0.6,0,1.3-0.1,1.6-0.2
					c1.1-0.3,1.5,2.4,1.8,12.2c0.2,5.2,0.4,10.7,0.5,12.1c0.3,3.5,0.1,3.7-3.5,2.6c-4.1-1.3-6.4-2.2-7.1-2.9
					c-0.7-0.6-0.7-0.9-0.5-4.1c0.1-1.9,0.3-7.3,0.5-12.1c0.2-4.7,0.4-8.7,0.6-8.9c0.7-0.6,2.4-0.5,3.7,0.3
					C206,430.5,207.1,430.8,207.7,430.8z M226.1,431.4c1.1,0.5,1.5,0.9,1.6,1.7c0.4,2.2-0.1,3.5-2.5,6c-2.4,2.5-3.2,2.8-3.6,1.2
					c-0.3-1.1-0.2-9.4,0-9.7C222.1,430.3,224.5,430.7,226.1,431.4z M191.9,431.9c0.1,0.7,0,3.9-0.2,7.3c-0.2,3.3-0.4,7.4-0.4,9
					c0,3.6-0.3,3.9-2.7,3.3c-0.9-0.2-1.8-0.6-2-0.7c-0.2-0.2-0.6-0.3-1-0.3c-0.9,0-5.7-1.5-14.6-4.6c-1.2-0.4-1.3-1.1-0.2-1.7
					c0.4-0.2,1.2-0.8,1.9-1.3c0.7-0.5,1.4-0.9,1.5-0.9c0.1,0,0.7-0.3,1.2-0.7c1-0.7,4.5-3,5.8-3.8c0.9-0.6,4.5-3,7.6-5.2
					C191,430.4,191.6,430.4,191.9,431.9z"/>
			</g>
		</g>
	</g>
</g>
</svg>
