<?xml version="1.0" encoding="utf-8"?>
<!-- Generator: Adobe Illustrator 24.2.0, SVG Export Plug-In . SVG Version: 6.00 Build 0)  -->
<svg version="1.1" id="Capa_1" xmlns="http://www.w3.org/2000/svg" xmlns:xlink="http://www.w3.org/1999/xlink" x="0px" y="0px"
	 viewBox="0 0 384.3 575.4" style="enable-background:new 0 0 384.3 575.4;" xml:space="preserve">
<style type="text/css">
	.st0{fill:url(#SVGID_1_);}
	.st1{fill:none;stroke:#FDFDFF;stroke-miterlimit:10;}
	.st2{stroke:#FDFDFF;stroke-miterlimit:10;}
</style>
<g id="Capa_2_1_">
	
		<radialGradient id="SVGID_1_" cx="192.15" cy="290.3" r="244.6354" gradientTransform="matrix(1 0 0 -1 0 578)" gradientUnits="userSpaceOnUse">
		<stop  offset="1.916933e-07" style="stop-color:#28A5DF"/>
		<stop  offset="0.9598" style="stop-color:#325C70"/>
	</radialGradient>
	<rect class="st0" width="384.3" height="575.4"/>
</g>
<g id="Capa_1_1_">
	<g>
		<g id="layer1_1_">
			<g>
				<path d="M128.4,1.2c-0.3,0-2.8,1.3-5.7,3c-6.1,3.7-9.9,6-11,6.7c-2.2,1.4-3.3,2-3.9,2c-0.1,0-0.1,0-0.1,0
					c-0.3-0.1-0.8-0.7-1.1-1.5c-1-2.4-3.4-3.7-5.5-3.7c-1.5,0-2.8,0.7-3.5,2.1c-0.6,1.4-0.1,2.9,1.4,4.3c1.2,1.1,3.2,1.8,4.6,1.8
					c0.2,0,0.4,0,0.6-0.1c1.1-0.2,3.7-1.6,5.4-2.7c0.6-0.4,2.5-1.7,4.3-2.7c1.7-1,2.6-1.5,3.1-1.5c0.6,0,0.8,0.6,1,1.7
					c0.2,0.9,0.1,1.8-0.4,3.5c-0.6,2-0.8,2.4-1.9,3.4c-1.3,1.1-3.3,2.3-4.5,2.5l-0.7,0.2l0.6,0.2c0.1,0,0.3,0.1,0.5,0.1
					c2,0,6.8-2.3,7.2-3.6c0.1-0.2,0.9-0.9,1.9-1.4c1-0.6,2.4-1.7,3-2.4c1.1-1.2,1.3-1.6,2.8-6.2c0.9-2.7,1.7-5.1,1.9-5.2
					C128.7,1.4,128.7,1.3,128.4,1.2L128.4,1.2z"/>
			</g>
			<g>
				<path d="M207.1,2.2c-2,0-4.1,1.2-3.9,2.7c0.2,1.8,1.8,3,4,3c0.2,0,0.4,0,0.5,0c0.8-0.1,1.8-0.3,2.1-0.6c0.3-0.2,0.6-0.4,0.9-0.4
					c1.1,0,2.1,1.9,4.8,8.2c2.5,5.6,4,8.5,4.6,8.5c0.2,0,0.2-0.3,0.2-0.8c0-0.4,0.4-2.5,1-4.6c1-3.7,1.1-4,0.6-5.4
					c-0.3-0.8-0.7-1.8-1-2.3s-0.7-1.6-0.8-2.4c-0.3-1.6-2-4.4-2.5-4.4c-0.1,0-0.1,0-0.1,0.2s0.3,0.9,0.6,1.7c1.1,2.1,1,4.2,0,6
					c-0.5,0.8-1.2,1.6-1.6,1.8c-0.2,0.1-0.3,0.1-0.4,0.1c-0.5,0-0.9-0.8-2.6-4.3c-2.6-5.3-3.5-6.4-5.1-6.9
					C207.9,2.2,207.5,2.2,207.1,2.2z"/>
			</g>
			<g>
				<path d="M46.9,5.6c-0.1,0-1.9,1.4-4,3.2S38,13,36.7,14.2s-2.5,2.2-2.6,2.3l0,0c-0.2,0-0.7-0.5-1.2-1c-0.9-1-2.7-1.8-4.1-1.8
					c-0.3,0-0.6,0-0.9,0.1c-1,0.3-1.8,1.6-1.5,2.6c0.2,0.9,1.6,2.1,2.9,2.4c0.4,0.1,0.7,0.2,1.1,0.2c1.8,0,3.7-1.4,8-5.5
					c0.8-0.8,1.6-1.3,1.8-1.3l0,0c0.6,0.2,1.1,1.6,1,3.1c0,1.9-0.9,3.8-2,4.5c-0.4,0.3-1,0.7-1.3,1c-0.4,0.3-0.5,0.4-0.4,0.4
					s0.2,0,0.5-0.1c1.6-0.4,4-2.1,4.2-3c0.1-0.3,0.7-1,1.5-1.6c1.3-1,1.4-1.3,2-3.5C46.5,9.9,47.2,5.7,46.9,5.6L46.9,5.6z"/>
			</g>
			<g>
				<path d="M42.2,53l-1.3,0.1l-2.2,7.5L36.5,68l-1.4-0.4c-0.7-0.2-1.3-0.3-1.9-0.3c-1.7,0-3,0.9-3.4,2.5c-0.5,1.8,0.8,2.9,2.6,2.9
					c1,0,2.1-0.4,3.1-1.2c0.9-0.8,1-1.1,2.2-5.4l1.3-4.6l3.1,0.2c9.1,0.5,8.5,0.2,7.3,4.3c-0.6,2.3-0.7,2.9-1.7,2.9
					c-0.4,0-1.1-0.1-2.1-0.3c-0.5-0.1-0.9-0.1-1.2-0.1c-1,0-1.7,0.3-2.5,1.1c-0.8,0.8-0.8,0.9-0.5,2.1s0.6,1.5,2.3,1.8
					c0.2,0,0.4,0.1,0.5,0.1c1.1,0,2.5-0.6,3.2-1.4s1.1-2.2,3.2-9.5l2.4-8.6l-1-0.2c-0.5-0.1-1.4-0.2-1.9-0.2c0,0,0,0-0.1,0h-0.1
					c-0.6,0-2.2-0.1-3.7-0.3C44.8,53.1,42.9,53,42.2,53z"/>
			</g>
			<g>
				<path d="M77.8,5.6c-0.2,0-0.3,0.1-0.5,0.2c-1.3,0.9-1.7,3.8-1.1,7.3l0.4,2.1L75,16.9c-3.3,3.9-3.2,8.7,0.3,11
					c0.9,0.6,2.8,1.1,4.7,1.1c0.7,0,0.9,0.2,1.1,1c0.1,0.5,0.2,0.7,0.3,0.7l0,0c0.1-0.2,0-0.7-0.2-1.1c-0.3-0.7-0.2-0.9,0.7-1.8
					c1.1-1.3,1.6-2.8,1.4-4.4c-0.3-1.7-1.2-2.5-3.2-3.1c-1.7-0.5-1.8-0.5-2.1-1.8c-0.3-1.2-0.3-1.3,0.5-2.5c1.2-1.7,2-4.8,1.6-6.3
					C79.6,7.2,78.7,5.6,77.8,5.6z"/>
			</g>
			<g>
				<path d="M185.1,6.5c-0.5,0-1.8,1-4,2.9c-2,1.8-4.3,3.9-5.3,4.8c-2.7,2.6-8.7,7.5-9.1,7.5l0,0c-0.2,0-0.7-0.6-1.2-1.3
					c-1.1-1.6-3.4-2.8-5.3-2.8l0,0h-0.1c-1.6,0-2.6,0.5-3.4,1.7c-0.6,0.8-0.6,1.1-0.5,2.2c0.3,1.7,1.6,2.9,4.1,3.6
					c0.7,0.2,1.4,0.3,2,0.3c1.3,0,2.5-0.5,3.5-1.4c0.6-0.6,2-1.8,3.1-2.8c1.2-1,2.9-2.5,4-3.4s2.1-1.7,2.4-1.7h0.1
					c0.6,0,1.1,0.9,1.4,2.7c0.7,3.2-1.3,7.2-4.4,9c-1.1,0.6-1.1,0.7-0.5,0.7l0,0c1.6,0,4.5-2.2,6.2-4.7c0.4-0.6,1.2-1.4,1.7-1.8
					c2.9-2,4-4.4,4.4-9.5c0.2-2.2,0.5-3.9,0.8-4.7C185.4,6.9,185.4,6.5,185.1,6.5L185.1,6.5z"/>
			</g>
			<g>
				<path d="M99.7,47c-1.2,0-2.9,0.4-4.3,1c-0.8,0.4-2.1,0.7-2.8,0.7c-2.4,0.1-6.5,2.1-6.5,3.1c0,0.1,0.1,0.1,0.2,0.1
					c0.2,0,0.7-0.2,1.2-0.4c0.7-0.4,2.1-0.8,3.2-1c0.6-0.1,1-0.2,1.4-0.2c0.7,0,1.2,0.1,2.2,0.5c1.9,0.7,4,2.4,4.1,3.2
					c0.1,0.7-0.5,1.2-2.1,1.8c-11.6,4.1-12,4.4-12.8,7.4s0,5,2.5,5.7c0.5,0.2,0.9,0.2,1.2,0.2c0.4,0,0.7-0.2,1.2-0.5
					c1.9-1.4,2.6-4.4,1.7-7.3c-0.3-1-0.5-2-0.3-2.1c0.1-0.2,1.5-0.8,3-1.3c2.9-1,10.4-3.9,10.7-4.1c0.1-0.1,1.6-0.6,3.4-1.2
					c5.2-1.7,5.6-2.1,3.3-2.4c-0.8-0.1-2.7-0.8-4.4-1.5c-3-1.3-4.6-1.8-5.7-1.9C99.9,47,99.8,47,99.7,47z"/>
			</g>
			<g>
				<path d="M142.2,56.3l-3.6,12l-3.6,12l-2-0.6c-1.1-0.4-1.9-0.5-2.7-0.5c-0.3,0-0.6,0-1,0.1c-2,0.3-4.5,1.7-5.1,3
					c-0.6,1.2-0.3,2.8,0.9,3.9c0.9,0.9,2.1,1.3,3.4,1.3c1,0,2.2-0.3,3.4-0.9c2.9-1.4,2.9-1.5,5.2-9.4c1.5-5.2,2.1-7,2.5-7.1
					c0.2-0.1,0.3-0.1,0.7-0.1c0.9,0,3.1,0.2,9.2,0.6c3.4,0.3,6.6,0.6,7.1,0.7l0.9,0.2l-1.6,5.3c-1.3,4.2-1.6,5.1-2,5.1h-0.1
					c-0.2-0.1-1.1-0.5-2-0.8c-0.7-0.2-1.5-0.4-2.3-0.4c-2.8,0-5.6,1.5-6.2,3.7c-0.6,1.9,0.7,3.8,2.9,4.4c0.4,0.1,0.8,0.1,1.3,0.1
					c1.5,0,3.4-0.4,4.5-1.2c2.3-1.4,2.3-1.4,6.6-16.4l3.8-13.5l-0.8-0.3c-0.4-0.2-0.8-0.2-0.9-0.2h-0.1c0,0-0.1,0-0.2,0
					c-1.5,0-11-0.6-15.8-0.9L142.2,56.3z"/>
			</g>
			<g>
				<path d="M186,51.7C186,51.7,185.9,51.7,186,51.7c-0.3,0.3-1.1,4.3-2.1,10.9c-0.9,5.7-1.8,11.1-2.1,12.3l-0.4,1.3l-1.2-0.5
					c-0.6-0.2-1.2-0.3-1.9-0.3c-0.3,0-0.7,0-1,0.1c-2.9,0.4-4.5,1.6-5.1,3.8c-0.7,2.4,1.4,4.2,3.9,4.2c1,0,2.1-0.3,3.2-0.9
					c1.8-1.1,2.9-2.8,3.2-5.1c0.1-1,0.5-3.4,0.8-5.3s0.7-4.2,0.8-5.1c0.1-1.1,0.2-1.5,0.6-1.5c0.3,0,0.7,0.1,1.3,0.4
					c1,0.4,3,2,3.6,3.1c0.3,0.5,0.6,1.4,0.8,2.1c0.3,1.6,0,4.9-0.6,6c-0.3,0.6-0.4,0.9-0.2,0.9s0.7-0.5,1.2-1.4
					c1-1.8,1.5-4.5,1.3-6.7c-0.1-0.9,0-2.4,0.2-3.5c0.7-3.4-0.2-6.2-3.3-9.7c-1.2-1.4-1.5-1.9-2.4-4.3
					C186.4,51.9,186.2,51.7,186,51.7z"/>
			</g>
			<g>
				<path d="M109.3,98.1c-0.3,0-0.4,0.4-0.6,1.5c-0.2,0.9-0.6,3.5-1,5.8s-0.8,5.3-1.1,6.7c-0.2,1.4-0.5,3.4-0.6,4.5
					s-0.4,2.7-0.7,3.4l-0.5,1.3l-1.7-0.3c-0.7-0.1-1.3-0.2-1.9-0.2c-1,0-1.8,0.3-2.8,0.9c-2.3,1.3-3.2,3.3-2.4,5
					c0.5,0.9,0.7,1.1,2.3,1.6c0.7,0.2,1.2,0.3,1.7,0.3s0.9-0.1,1.5-0.4c1.7-0.7,2.3-1,3.2-2.1c0.8-0.9,1.2-3.2,2-9.7
					c0.2-1.7,0.6-3.6,0.8-4.2c0.2-0.6,0.3-0.9,0.7-0.9c0.2,0,0.4,0.1,0.8,0.2c3.5,1.2,5.3,5.7,4,10.2c-0.3,1.1-0.4,1.6-0.3,1.6
					s0.2-0.1,0.5-0.4c1.1-1.1,2.1-5.1,1.7-7.1c-0.2-0.9-0.1-2.1,0.1-2.7c0.9-3.2,0-6.3-3.2-10.7c-1-1.3-1.9-2.8-2-3.3
					S109.4,98.1,109.3,98.1C109.3,98.1,109.3,98.1,109.3,98.1z"/>
			</g>
			<g>
				<path d="M184.6,89.1c-0.1,0-0.1,0.1-0.2,0.3c-0.1,0.4-0.3,7-0.3,15c0,0.5,0,2.3,0,3.9c0,2.7-0.1,2.9-0.6,3.1
					c-0.2,0.1-0.5,0.1-0.7,0.1s-0.5,0-0.6-0.1c-0.3-0.1-0.6-0.1-0.9-0.1c-1.7,0-3.6,1-4.6,2.6c-1.7,2.5-0.1,5,2.7,5
					c0.5,0,1.1-0.1,1.7-0.3c1.7-0.6,3.4-2.1,3.7-3.5c0.2-0.5,0.2-2,0.3-3.3c0-1.3,0-3.8,0-5.6c0-1.8,0-4.3,0-5.5
					c0-2.5,0-3.5,0.7-3.5c0.4,0,1.1,0.4,2.1,1c2.8,1.8,4.1,5.3,3.3,9.3c-0.3,1.1-0.4,2.2-0.2,2.3c0,0,0,0,0.1,0
					c0.4,0,1.5-2.9,1.7-4.8c0.5-3.4-0.6-6.1-3.8-9.8c-1.1-1.3-2.4-3.1-3-4.2C185,89.6,184.7,89.1,184.6,89.1z"/>
			</g>
			<g>
				<path d="M137,123.2c-3.7,0-5.9,3.3-4.3,6.7c0.9,2,2.3,3,5,3.8c1.1,0.3,1.8,0.5,2.6,0.5c0.5,0,1.1-0.1,1.9-0.2
					c0.7-0.1,1.3-0.2,1.8-0.2c0.3,0,0.5,0,0.6,0.1c0.1,0.2,0.4,3.1,0.6,6.5c0.3,3.4,0.6,7.2,0.7,8.5c0.2,1.3,0.4,3.4,0.4,4.7
					c0.1,1.3,0.3,4.5,0.5,7.3c0.2,2.7,0.4,5.2,0.5,5.4s0.2,0.4,0.4,0.4c0.4,0,0.9-0.7,1.2-1.8c0.5-1.6,1.1-2.5,4.1-5.8
					c4.2-4.5,5.3-7.8,4.4-12.9c-0.2-0.9-0.1-2,0.2-3c0.8-2.7,0-8.5-1.4-10.5c-0.4-0.5-0.9-1.2-1-1.4s-0.2-0.2-0.3-0.2l0,0
					c-0.2,0-0.1,0.5,0.2,1.3c0.8,2,1.1,6.5,0.5,8.6c-0.4,1.3-2.4,4.1-3.8,5.3c-1.3,1.1-3.3,2-4.2,2c-0.2,0-0.3,0-0.3-0.1
					c-0.2-0.1-0.4-1.3-0.6-2.5c-0.5-6-0.7-8.2-0.9-11.7c-0.1-2.1-0.3-4.2-0.4-4.7c-0.5-2.5-4.4-5.4-7.6-5.8
					C137.5,123.2,137.2,123.2,137,123.2z"/>
			</g>
			<g>
				<path class="st1" d="M327.9,316.4c0-3-0.3-5.7-0.8-6.2c-0.4-0.4-0.9-8.1-1-17.7c-0.2-11.7-0.4-15.3-0.9-15.3l0,0
					c-0.1,0-0.3,0.3-0.5,0.8c-0.6,1.3-1.4,4.8-1.8,7.7c-0.4,2.9-1.1,7.3-1.5,9.7c-0.4,2.4-1.1,6.5-1.5,8.9s-1.1,6.6-1.6,9.3
					c-0.5,2.7-1.1,7.2-1.4,10.1c-0.5,4.8-0.8,5.3-3.3,7c-1.5,1.1-3,1.9-3.2,1.9l0,0c-1.4,0-6.6-5.2-6.6-6.5c0-0.8-0.3-1.7-0.7-2
					c-0.1,0-0.1-0.1-0.2-0.1l0,0c-1.3,0-4.7,3.8-5.3,6c-0.5,1.9,0.6,7.8,2.9,15.5c0.7,2.4,1.5,8.4,1.7,13.3l0.5,8.9l3.6,0.6
					c7.9,1.2,9.2,1.8,12.1,4.7c3.2,3.2,3.9,5.3,4.6,13c0.3,4.1,0.1,5.2-2.7,10.4c-1.6,3.2-4.6,7.4-6.6,9.3c-2.3,2.2-3.2,3.6-2.7,4
					c0.1,0.1,0.4,0.1,0.8,0.1l0,0c1.8,0,5.6-1.1,7-2.1c0.5-0.3,1.9-0.8,3.1-1.1c2.9-0.7,8.2-6.3,9.9-10.6c0.7-1.8,1.6-3.8,1.9-4.5
					c3.9-7.8,2.4-38.3-2.8-58.6C328.9,325.6,327.9,319.9,327.9,316.4z"/>
				<g>
					<path class="st1" d="M289.3,279.6c0-3-0.3-5.7-0.8-6.2c-0.4-0.4-0.9-8.1-1-17.7c-0.2-11.7-0.4-15.3-0.9-15.3l0,0
						c-0.1,0-0.3,0.3-0.5,0.8c-0.6,1.3-1.4,4.8-1.8,7.7s-1.1,7.3-1.5,9.7c-0.4,2.4-1.1,6.5-1.5,8.9s-1.1,6.6-1.6,9.3
						c-0.5,2.7-1.1,7.2-1.4,10.1c-0.5,4.8-0.8,5.3-3.3,7c-1.5,1.1-3,1.9-3.2,1.9l0,0c-1.4,0-6.6-5.2-6.6-6.5c0-0.8-0.3-1.7-0.7-2
						c-0.1,0-0.1-0.1-0.2-0.1l0,0c-1.3,0-4.7,3.8-5.3,6c-0.5,1.9,0.6,7.8,2.9,15.5c0.7,2.4,1.5,8.4,1.7,13.3l0.5,8.9l3.6,0.6
						c7.9,1.2,9.2,1.8,12.1,4.7c3.2,3.2,3.9,5.3,4.6,13c0.3,4.1,0.1,5.2-2.7,10.4c-1.6,3.2-4.6,7.4-6.6,9.3c-2.3,2.2-3.2,3.6-2.7,4
						c0.1,0.1,0.4,0.1,0.8,0.1l0,0c1.8,0,5.6-1.1,7-2.1c0.5-0.3,1.9-0.8,3.1-1.1c2.9-0.7,8.2-6.3,9.9-10.6c0.7-1.8,1.6-3.8,1.9-4.5
						c3.9-7.8,2.4-38.3-2.8-58.6C290.3,288.8,289.3,283.2,289.3,279.6z"/>
					<path class="st2" d="M342.7,414.9c-0.4-0.3-0.8-4.2-0.8-8.7c0-4.4-0.3-8.5-0.7-8.9c-0.4-0.5-1-4.1-1.1-7.9
						c-0.2-3.9-0.8-9.4-1.3-12.3c-1-5.9-2.1-13.4-3.5-23.4c-1.2-8.8-0.9-24.6,0.5-29.2c1.5-4.6,1.6-16,0.2-17.4
						c-0.6-0.5-2.1-1.1-3.5-1.2c-2.3-0.3-2.4-0.4-2.3-3.8c0.2-1.9,0.8-5.5,1.6-7.9c2.3-7.7,1.3-14.7-2.4-15.7
						c-0.3-0.1-0.8-0.1-1.2-0.1l0,0c-3.1,0-8.6,2.2-10.7,4.4c-1.2,1.2-2.3,1.9-2.8,1.9l0,0c-0.1,0-0.2,0-0.2-0.1
						c-0.3-0.4-0.5-3.1-0.4-6.1c0.2-5.3-2.7-22.7-4.7-28.4c-1.2-3.5-5.4-10.6-8.7-14.9c-1.5-1.9-2.7-3.9-2.7-4.3
						c0-2.6-11.6-16.6-17.3-20.8c-0.9-0.7-1.9-1.6-2.1-1.8c-0.2-0.3-1.7-1.6-3.3-2.9c-2.3-1.8-3.1-3.3-3.5-5.9
						c-0.2-1.9-1.5-4.8-2.8-6.3c-1.3-1.7-2.5-3.4-3.4-4.8l0,0c-0.9-2.8-1.1-3.3-1.6-4.8c-0.3-0.8-0.5-1.7-0.6-2
						c-0.5-1.6-1.4-4.9-1.8-6.9c-0.6-2.7-0.6-4.5,0.1-7.2c0.5-1.9,0.9-3.1,2.3-6.6c2-5.1,2.3-5.9,2.7-9.5c0.8-6,0.6-11.5-0.5-16.8
						c-1.2-5.7-3.7-10.8-7.1-14.8c-5.9-6.8-14.5-10.5-24.7-10.5l0,0h-0.1h-0.1c-2.2,0-3.6,0.1-6,0.4c-0.9,0.1-5.4,1-6,1.2
						c-0.2,0.1-0.8,0.2-1.4,0.4c-6,1.8-11.5,5.2-15.4,9.5c-2.1,2.4-4,5.3-5.3,8.3c-1.7,3.8-2.6,8.1-2.6,12.4c0,2.7,0.3,4.3,1.3,5.9
						l0.3,0.5l-0.3,0.9c-0.6,1.4-1.4,3.3-3.1,6.8c-2.7,5.5-3.5,7.5-4,9.4c-0.4,1.5-0.4,2.4-0.1,3.1c0.4,0.8,1.1,1.3,2.9,1.8
						c0.7,0.2,1,0.3,1.4,0.3l0,0c0.1,0,0.1,0,0.2,0c0.3,0,0.6,0,0.8,0l0,0c1,0,1.5,0.2,1.8,0.5s0.3,0.8,0.2,1.8
						c-0.1,0.5-0.1,1.1-0.1,1.3c0,0.5-0.1,0.9-0.4,1.7c-0.4,1-0.5,1.3-0.4,1.8c0.2,0.7,0.6,1.2,1.9,1.9c0.3,0.2,0.6,0.3,0.6,0.4
						c0.1,0.2,0,0.6-0.5,1.5s-0.6,1.2-0.5,1.6c0.1,0.3,0.2,0.4,1.2,1.3c1.2,1,1.7,1.7,1.9,2.6c0.1,0.6,0.1,0.6-0.1,2.9
						c-0.4,3.2-0.4,4.5,0.1,5.5c0.6,1.3,2.4,2.8,4,3.3c0.8,0.2,1.3,0.3,2.1,0.4h0.7l6.3-1.3l6.3-1.3l0.3,0.3
						c0.5,0.4,1.3,1.6,1.9,2.7c0.4,0.7,0.7,1.5,1.1,2.4l0,0c-0.2,0.1-0.5,0.3-0.7,0.4l0,0c0.1,0.2,0.2,0.3,0.3,0.4
						c2.2,3.5,2.2,3.6,0.7,6c-4.7,7.4-6.5,15.9-6.6,29.5c0,10.3-0.6,13.4-3.6,17.4c-1.3,1.8-4,9.7-5.7,16.3
						c-1.4,5.7-2.6,15.1-3.1,26.7c-0.2,4-0.6,7.8-0.9,8.3c-0.4,0.6-0.8,4.9-1,9.4l-0.5,8.4l-7.1-0.3c-0.9,0-1.7,0-2.5,0h-0.1
						c-3.2,0-5.1,0.3-5.8,0.9c-0.6,0.5-3.4,1.2-6.1,1.4c-0.7,0-1.3,0.1-1.9,0.1l0,0c-3.7,0-5.3-1-12.5-6.8c-1.5-1.3-4.5-2.8-6.5-3.5
						c-2-0.6-4.1-1.6-4.6-2c-0.4-0.3-1.3-0.4-2.4-0.4l0,0c-0.7,0-1.4,0.1-2.1,0.2c-1.9,0.4-6,0.8-9.1,1.1c-5.3,0.5-8.5,2-8.5,4.2
						c0,0.4-1,2.2-2.4,3.9c-0.4,0.5-0.8,1-1.1,1.6l-35.7-1.4l-0.4-76.9l-59.1,0.4v-42.9l61.3-11.4l-1.3-9.2v-0.1L1,200.6v9.5
						l29.7-5.5v42L1,246.8v143.7h4.1l0.1-19.1l0,0c22.5,0,42.3,0.1,43.1,0.2l0,0c0.4,0,0.8,25.7,0.9,57.1l0.3,53.3h13.8l0.2-53
						c0-33.2,0.4-57,0.8-57.4c0.4-0.3,22.8-0.5,49.8-0.5c25.7,0,47-0.3,49.3-0.6l0,0l5.9,0.2l3.5,0.1l0.8-23.4l0,0
						c2.6,0.7,3.3,2,2.6,4.5c-1.1,4.9-1,5,4.7,5.3c4.6,0.2,5.5,0.5,5.8,1.9c0.2,1.1,1.1,1.8,2,1.8l0,0c1,0,1.9,0.4,2.1,0.8
						c0.6,1-4.7,4.5-6.5,4.5c-0.7,0-2.8,1.5-4.8,3.3c-7.4,7-9.9,9.1-10.5,9.1c-0.4,0-1.9,1.2-3.3,2.7c-2.5,2.6-2.7,2.6-11.2,2.7
						c-4.8,0-9.8,0.4-11.2,0.9c-1.4,0.4-7.9,1.9-14.6,3.1c-22.5,4.3-29,5.9-33.6,8.4c-3.6,2-5,3.8-7.3,9c-1.5,3.4-1.7,5.2-1.4,10.1
						c0.6,8.8,1.2,10.8,5.1,15.4c1.9,2.3,3.6,4.8,3.6,5.7c0,0.9,0.8,3.3,1.7,5.6c1,2.2,2.2,6.2,2.8,8.8c1.4,5.7,1.5,6.2,5.9,16.1
						c1.9,4.3,4.3,9.9,5.4,12.4c0.4,0.9,0.8,1.7,1.2,2.5H162l0.1-2.4c0.2-4.6-0.2-6.7-1.4-9.3c-0.8-1.8-2-5.3-2.6-7.7
						c-0.5-2.5-2.3-7.5-3.8-11.2c-2.3-5.5-2.9-8-1.9-8l0,0c0.5,0,1.3,0.5,2.4,1.6c1.7,1.6,2.4,2.1,4.9,2.1l0,0
						c1.1,0,2.6-0.1,4.7-0.3c1.5-0.1,4-0.2,6.9-0.2c0.1,0,0.3,0,0.4,0c4.4,0,9.8,0.1,14.7,0.3l14.9,0.6l-0.2,4.6
						c-0.1,2.6,0.3,6.2,0.8,7.9c1.2,3.9,3.7,8.2,4.8,8.2l0,0c0.4,0,3.1,1.6,6,3.6c3.6,2.4,5,3.2,6.6,3.2l0,0c0.5,0,1.1-0.1,1.7-0.2
						c1.7-0.4,8.4-0.8,15-1.1l11.9-0.4v4.8c0,1.5,0,2.7,0.2,3.6h26.4c-0.1-0.5-0.2-1.1-0.4-1.6c-1.4-5.6-1.6-6.7,0.6-6.7l0,0
						c0.4,0,1,0,1.6,0.1c3.3,0.3,3.4,0.4,4.7,4.7c0.4,1.5,0.8,2.6,1.1,3.6h25.5v-0.7c0.3-4.8,0.7-5.2,6.6-7.2
						c2.4-0.9,6.4-2.6,8.7-3.7c2.3-1.1,4.6-2.1,5.1-2.1c1.5,0,12-11.7,12-13.3c0-0.9,0.4-1.9,0.8-2.1c0.5-0.3,0.8-1.5,0.8-2.6
						s0.4-2.4,0.8-2.6c0.5-0.4,0.8-6.8,0.8-16.3C343.5,421.7,343.2,415.3,342.7,414.9z M334.7,446.2c-0.3,0.7-1.2,2.9-1.9,4.9
						c-1.8,4.7-7,10.8-9.9,11.6c-1.2,0.4-2.6,0.9-3.1,1.2c-1.3,1.1-5.2,2.3-7,2.3l0,0c-0.4,0-0.6,0-0.8-0.1
						c-0.6-0.4,0.4-1.9,2.7-4.3c2-2.1,5-6.6,6.6-10.1c2.7-5.7,3-6.9,2.7-11.4c-0.7-8.5-1.5-10.8-4.6-14.2c-2.9-3.2-4.3-3.8-12.1-5.1
						l-3.6-0.6l-0.5-9.7c-0.3-5.4-1.1-11.9-1.7-14.5c-2.3-8.4-3.3-14.7-2.9-16.8c0.6-2.5,4-6.6,5.3-6.6l0,0c0.1,0,0.2,0,0.2,0.1
						c0.4,0.4,0.7,1.3,0.7,2.2c0,1.4,5.2,7,6.6,7l0,0c0.2,0,1.7-0.9,3.2-2c2.5-1.9,2.8-2.5,3.3-7.7c0.3-3.2,1-8.1,1.4-11
						c0.5-2.9,1.2-7.5,1.6-10.1s1.1-7.1,1.5-9.7s1.1-7.4,1.5-10.6c0.5-3.2,1.3-7,1.8-8.4c0.2-0.5,0.4-0.8,0.5-0.8l0,0
						c0.5,0,0.7,3.9,0.9,16.7c0.1,10.5,0.6,18.9,1,19.3c0.5,0.5,0.8,3.5,0.8,6.8c0,3.9,1,10,2.9,18.1
						C337,404.5,338.5,437.8,334.7,446.2z"/>
				</g>
			</g>
		</g>
	</g>
</g>
</svg>
